<?xml version="1.0" standalone="no"?>
<!DOCTYPE svg PUBLIC "-//W3C//DTD SVG 20010904//EN"
 "http://www.w3.org/TR/2001/REC-SVG-20010904/DTD/svg10.dtd">
<svg version="1.0" xmlns="http://www.w3.org/2000/svg"
 width="1536.000000pt" height="1024.000000pt" viewBox="0 0 1536.000000 1024.000000"
 preserveAspectRatio="xMidYMid meet">

<g transform="translate(0.000000,1024.000000) scale(0.100000,-0.100000)"
fill="#000000" stroke="none">
<path d="M0 5120 l0 -5120 7680 0 7680 0 0 5120 0 5120 -7680 0 -7680 0 0
-5120z m12437 5034 c-24 -38 -54 -88 -66 -111 -12 -24 -24 -43 -26 -43 -9 0
44 99 88 166 23 35 43 62 45 60 2 -2 -17 -35 -41 -72z m1193 73 c0 -2 -10 -12
-22 -23 l-23 -19 19 23 c18 21 26 27 26 19z m-1292 -262 c-6 -14 -13 -24 -14
-22 -6 6 9 47 17 47 5 0 3 -11 -3 -25z m-34 -99 c-3 -15 -8 -25 -11 -23 -2 3
-1 17 3 31 3 15 8 25 11 23 2 -3 1 -17 -3 -31z m966 1 c0 -1 -28 -29 -62 -62
l-63 -60 60 63 c55 58 65 67 65 59z m-986 -76 c-4 -17 -9 -30 -11 -27 -3 2 -2
19 2 36 9 41 17 33 9 -9z m-17 -98 c-3 -10 -5 -2 -5 17 0 19 2 27 5 18 2 -10
2 -26 0 -35z m873 44 c0 -1 -28 -29 -62 -62 l-63 -60 60 63 c55 58 65 67 65
59z m-883 -154 c-2 -16 -4 -3 -4 27 0 30 2 43 4 28 2 -16 2 -40 0 -55z m1913
47 c11 -11 20 -29 20 -40 0 -25 -42 -70 -65 -70 -23 0 -65 45 -65 70 0 28 35
60 65 60 14 0 34 -9 45 -20z m532 3 c27 -24 23 -68 -9 -92 -41 -33 -95 -8 -95
43 0 56 63 86 104 49z m-2445 -135 c-2 -13 -4 -5 -4 17 -1 22 1 32 4 23 2 -10
2 -28 0 -40z m20 -150 c-3 -8 -6 -5 -6 6 -1 11 2 17 5 13 3 -3 4 -12 1 -19z
m33 -93 c0 -5 -5 -3 -10 5 -5 8 -10 20 -10 25 0 6 5 3 10 -5 5 -8 10 -19 10
-25z m1854 -86 c46 -36 25 -109 -33 -109 -34 0 -48 10 -59 40 -11 31 2 64 32
78 29 15 30 15 60 -9z m530 0 c47 -37 24 -109 -35 -109 -70 0 -90 94 -26 120
31 12 31 12 61 -11z m-11964 -190 c0 -5 -251 -178 -272 -187 -5 -2 -8 81 -8
186 l0 189 140 -91 c77 -50 140 -94 140 -97z m-759 105 c57 -37 116 -75 132
-84 l28 -18 -138 -93 c-76 -51 -139 -92 -141 -91 -2 1 -4 83 -5 182 -1 133 1
179 10 176 6 -3 57 -35 114 -72z m12199 -394 c39 -39 14 -100 -41 -100 -35 0
-59 24 -59 57 0 57 61 82 100 43z m530 0 c24 -24 25 -48 4 -78 -31 -44 -104
-20 -104 35 0 57 61 82 100 43z m-4466 -371 c69 -55 -9 -154 -82 -103 -44 31
-17 124 37 124 10 0 30 -9 45 -21z m2111 -459 c-357 -357 -370 -369 -373 -339
-2 18 -1 41 2 53 3 11 148 164 324 339 l318 317 49 0 50 0 -370 -370z m547
332 c4 -4 -192 -207 -436 -451 l-444 -444 -11 39 -11 39 418 418 c394 395 419
418 447 412 16 -3 33 -9 37 -13z m-657 -225 c-121 -123 -223 -225 -227 -225
-12 -3 38 104 76 161 40 61 142 164 201 204 45 31 145 83 160 83 5 0 -89 -101
-210 -223z m790 171 c14 -6 25 -16 25 -21 0 -10 -950 -966 -960 -967 -3 0 -13
14 -22 31 l-18 30 473 469 c259 259 473 470 474 470 1 0 14 -5 28 -12z m135
-98 l25 -19 -495 -496 -495 -495 -25 25 -25 25 490 490 c270 270 492 490 495
490 3 0 16 -9 30 -20z m106 -126 l17 -26 -474 -474 c-261 -261 -479 -474 -484
-474 -6 0 -21 7 -34 16 -23 17 -23 17 460 500 266 266 487 484 491 484 4 0 15
-12 24 -26z m72 -147 l12 -33 -429 -433 -430 -433 -35 12 c-20 6 -36 15 -36
18 0 8 892 902 900 902 3 0 11 -15 18 -33z m-12129 -164 c33 -41 1 -103 -54
-103 -26 0 -65 42 -65 69 0 60 81 83 119 34z m12161 -30 l0 -48 -337 -337
-338 -338 -50 0 -50 0 380 383 c209 211 383 385 388 385 4 1 7 -19 7 -45z
m-48 -282 c-71 -168 -185 -293 -337 -366 -152 -74 -152 -70 -10 77 72 73 185
188 250 256 66 67 121 118 123 113 2 -5 -10 -41 -26 -80z m827 -415 c73 -20
123 -57 155 -116 71 -130 30 -270 -102 -348 -39 -22 -59 -27 -117 -27 -58 0
-79 5 -123 29 -86 48 -132 124 -132 220 0 115 63 201 179 242 47 17 74 17 140
0z m-9453 -411 c63 -19 122 -69 154 -131 l25 -49 0 -900 0 -900 -27 -51 c-54
-102 -137 -144 -284 -144 l-94 0 0 -183 c0 -172 -1 -185 -21 -206 -27 -29 -64
-43 -96 -35 -14 4 -143 101 -287 215 l-261 209 -595 0 -595 0 -51 24 c-27 13
-67 43 -87 67 -69 80 -67 47 -67 998 0 548 4 872 11 901 19 83 84 156 166 186
59 21 2038 20 2109 -1z m7862 -790 c-2 -124 -3 -225 -2 -225 0 0 21 20 46 44
34 32 60 47 98 56 138 33 263 -27 322 -155 22 -48 23 -62 26 -347 l4 -298
-106 0 -106 0 0 243 c0 133 -5 258 -10 278 -29 106 -163 130 -239 44 l-31 -36
0 -264 0 -265 -110 0 -110 0 0 575 0 575 110 0 111 0 -3 -225z m-6724 184
c118 -22 212 -84 248 -167 26 -58 26 -167 0 -224 -19 -43 -101 -128 -123 -128
-7 0 15 -14 49 -31 109 -54 159 -143 150 -268 -8 -110 -59 -186 -158 -236 -96
-48 -145 -55 -413 -55 -223 0 -249 2 -243 16 3 9 6 261 6 560 l0 544 213 0
c117 0 239 -5 271 -11z m5018 -89 l3 -100 -147 0 -148 0 0 -460 0 -460 -115 0
-115 0 0 460 0 460 -150 0 -150 0 0 100 0 100 409 0 410 0 3 -100z m-4105
-241 c72 -35 115 -81 143 -157 18 -48 20 -78 20 -337 l0 -285 -89 0 c-50 0
-92 4 -95 8 -3 5 -7 28 -8 50 -2 23 -3 42 -4 42 -1 0 -19 -16 -40 -37 -56 -53
-116 -77 -194 -77 -110 0 -184 42 -220 127 -44 101 -22 218 53 284 47 41 115
60 247 68 142 8 140 7 140 61 0 25 -5 54 -10 65 -19 34 -68 52 -133 47 -55 -4
-64 -8 -92 -41 l-32 -37 -87 0 c-48 0 -86 4 -86 10 0 5 9 34 20 64 23 61 87
127 148 153 91 39 228 35 319 -8z m2393 30 c82 -13 150 -50 205 -112 60 -65
86 -139 92 -259 l6 -98 -271 0 -271 0 14 -47 c25 -82 74 -131 142 -140 53 -7
106 11 140 48 27 28 31 29 125 29 61 0 98 -4 98 -10 0 -25 -31 -81 -66 -119
-51 -58 -109 -89 -195 -107 -167 -35 -338 37 -411 172 -90 167 -63 416 60 541
63 64 143 99 257 112 6 0 39 -4 75 -10z m2019 1 c156 -26 261 -132 297 -299 7
-36 14 -90 14 -118 l0 -53 -268 -2 -268 -3 9 -43 c11 -58 77 -127 130 -137 56
-11 104 2 146 41 38 34 39 34 135 34 96 0 97 0 91 -22 -48 -159 -236 -253
-424 -214 -88 18 -143 49 -200 111 -73 79 -109 199 -98 328 18 206 134 347
309 376 29 5 55 9 58 10 3 0 34 -4 69 -9z m907 -22 c72 -26 137 -86 173 -160
17 -34 31 -67 31 -75 0 -10 -23 -13 -102 -13 -102 0 -103 0 -119 28 -31 55
-136 80 -199 47 -69 -36 -105 -120 -98 -234 7 -119 52 -188 137 -211 64 -17
159 27 176 80 6 18 16 20 111 20 105 0 105 0 99 -22 -52 -176 -234 -288 -418
-258 -196 32 -317 188 -317 410 1 305 251 491 526 388z m-4813 -42 l-1 -59 30
37 c50 61 99 81 198 81 101 0 147 -20 204 -87 59 -68 65 -106 68 -431 l3 -287
-107 0 -108 0 0 264 c0 257 0 264 -23 297 -41 61 -123 73 -195 29 -57 -35 -62
-60 -62 -340 l0 -250 -105 0 -105 0 0 405 0 406 102 -3 101 -3 0 -59z m842 2
l0 -57 28 35 c49 59 99 79 197 79 62 0 95 -5 122 -18 57 -29 104 -81 129 -144
22 -55 23 -75 27 -350 l4 -293 -105 0 -106 0 -3 263 c-3 286 -5 295 -64 334
-36 23 -112 22 -155 -3 -65 -37 -69 -58 -69 -341 l0 -253 -105 0 -105 0 0 405
0 406 103 -3 102 -3 0 -57z m1656 -5 c0 -46 3 -62 9 -48 28 68 158 128 234
109 26 -6 26 -8 26 -100 l0 -94 -62 0 c-108 -1 -183 -51 -199 -132 -4 -24 -6
-141 -5 -260 l3 -218 -106 0 -106 0 2 402 c2 222 3 404 3 406 0 1 45 2 100 2
l100 0 1 -67z m-8654 -1015 c30 -28 29 -63 -2 -93 -28 -29 -55 -32 -83 -7 -32
26 -37 63 -12 95 26 33 65 35 97 5z m12787 -1189 c17 -13 26 -30 26 -49 0 -29
-38 -70 -65 -70 -7 0 -24 9 -39 21 -50 39 -25 114 40 118 6 1 23 -8 38 -20z
m-10450 -1284 c26 -27 29 -56 9 -84 -55 -74 -160 1 -107 77 18 26 74 30 98 7z
m-2234 -143 c29 -24 30 -70 1 -93 -25 -20 -55 -17 -82 7 -25 23 -24 52 3 81
26 28 48 29 78 5z m528 2 c57 -39 0 -135 -61 -103 -29 16 -37 28 -37 61 0 28
31 58 60 58 9 0 26 -7 38 -16z m11898 -330 c64 -30 127 -98 148 -161 20 -59
20 -176 0 -235 -22 -67 -75 -122 -152 -160 -59 -29 -76 -33 -147 -33 -67 0
-89 4 -137 28 -62 31 -116 84 -149 149 -30 59 -37 168 -15 236 19 57 78 129
133 163 86 54 222 59 319 13z m-12416 -154 c28 -28 25 -64 -6 -89 -15 -12 -32
-21 -39 -21 -23 0 -65 41 -65 64 0 59 68 88 110 46z m522 3 c39 -35 11 -103
-43 -103 -35 0 -59 24 -59 57 0 55 62 83 102 46z m-524 -463 c12 -12 22 -32
22 -45 0 -56 -74 -78 -112 -33 -24 27 -23 44 7 73 29 30 54 32 83 5z m520 4
c15 -10 22 -25 22 -48 0 -40 -15 -56 -54 -56 -59 0 -87 59 -46 100 24 24 48
25 78 4z"/>
<path d="M14032 6870 c-53 -8 -118 -53 -156 -109 -36 -55 -47 -155 -22 -213
46 -109 163 -171 279 -149 47 8 119 49 111 62 -2 4 5 11 17 14 13 4 18 12 15
21 -3 8 -2 12 4 9 19 -12 44 59 44 130 1 59 -3 77 -27 117 -28 46 -73 87 -112
102 -37 14 -110 22 -153 16z"/>
<path d="M2663 6246 l-28 -24 -3 -832 -2 -831 29 -30 29 -29 585 0 584 0 34
-23 c19 -13 107 -80 197 -150 89 -70 165 -127 167 -127 3 0 5 46 5 103 0 170
31 197 225 197 115 0 117 0 146 29 l29 29 0 827 0 827 -29 29 -29 29 -956 0
-955 0 -28 -24z m1665 -254 c69 -50 67 -34 67 -567 0 -465 -1 -481 -20 -515
-41 -69 -63 -74 -317 -80 l-227 -5 39 -68 c67 -115 83 -107 -229 -107 -220 0
-270 3 -274 14 -3 8 12 48 34 90 l40 76 -203 0 c-192 0 -206 1 -248 23 -24 12
-53 35 -64 50 -20 28 -21 42 -24 508 -3 461 -2 481 17 525 16 35 29 49 63 64
41 19 66 20 678 17 l635 -2 33 -23z"/>
<path d="M3055 5858 c-3 -7 -4 -206 -3 -443 l3 -430 590 0 590 0 0 440 0 440
-588 3 c-465 2 -589 0 -592 -10z m430 -247 c73 -32 425 -244 425 -256 0 -17
-86 -59 -105 -51 -22 8 -19 1 21 -50 44 -58 43 -89 -5 -121 -19 -13 -39 -23
-45 -23 -6 0 -27 23 -46 51 -33 49 -52 69 -49 52 1 -4 1 -14 0 -21 -1 -14 -79
-92 -92 -92 -14 0 -25 34 -90 280 -55 210 -69 279 -51 255 4 -6 20 -16 37 -24z"/>
<path d="M5570 5549 l0 -134 117 5 c156 7 193 32 193 130 0 96 -41 122 -197
128 l-113 5 0 -134z"/>
<path d="M5570 5085 l0 -147 133 4 c144 4 182 15 214 65 25 38 23 125 -3 160
-36 48 -67 57 -211 61 l-133 4 0 -147z"/>
<path d="M6600 5085 c-94 -16 -124 -28 -144 -57 -41 -58 0 -128 76 -128 50 0
114 27 143 59 13 15 21 43 25 82 7 67 15 64 -100 44z"/>
<path d="M9020 5388 c-59 -17 -110 -80 -110 -138 0 -19 6 -20 166 -20 153 0
165 1 160 18 -3 9 -8 29 -11 43 -8 34 -61 83 -104 98 -39 13 -53 13 -101 -1z"/>
<path d="M11052 5390 c-54 -13 -100 -65 -116 -132 l-6 -28 166 0 167 0 -6 37
c-15 89 -110 147 -205 123z"/>
<path d="M13418 1456 c-100 -27 -153 -97 -153 -201 0 -109 64 -184 177 -207
68 -14 125 1 175 45 115 101 90 295 -47 350 -55 23 -101 27 -152 13z"/>
</g>
</svg>
